# xmcd
#
# Track frame offsets: 
#        150
#        29137
#        62280
#        73350
#        95975
#        121877
#        139420
#        156997
#        176052
#        197355
#        218440
#        240927
#        271882
#
# Disc length: 3954 seconds
#
# Revision: 1
# Processed by: cddbd v1.5.1PL0 Copyright (c) Steve Scherf et al.
# Submitted via: ExactAudioCopy v0.95b1
#
DISCID=bf0f700d
DTITLE=謝導秀-古崗貴遺韻綻新華 - 碧澗流泉
DYEAR=1900
DGENRE=Chinese Qin
TTITLE0=平沙落雁
TTITLE1=烏夜啼
TTITLE2=雙鶴听泉
TTITLE3=碧澗流泉（箏簫協奏）
TTITLE4=神化引
TTITLE5=禪院鐘聲
TTITLE6=怀古
TTITLE7=玉樹臨風
TTITLE8=高山流水
TTITLE9=鷗鷺忘机
TTITLE10=碧澗流泉（古琴獨奏）
TTITLE11=漁樵問答
TTITLE12=平湖秋月
EXTD=
EXTT0=
EXTT1=
EXTT2=
EXTT3=
EXTT4=
EXTT5=
EXTT6=
EXTT7=
EXTT8=
EXTT9=
EXTT10=
EXTT11=
EXTT12=
PLAYORDER=
